<svg width="64" height="64" viewBox="0 0 64 64" fill="none" xmlns="http://www.w3.org/2000/svg">
<path d="M44 57H20C12.832 57 7 51.168 7 44V20C7 12.832 12.832 7 20 7H44C51.168 7 57 12.832 57 20V44C57 51.168 51.168 57 44 57ZM20 9C13.935 9 9 13.935 9 20V44C9 50.065 13.935 55 20 55H44C50.065 55 55 50.065 55 44V20C55 13.935 50.065 9 44 9H20Z" fill="white"/>
<path d="M32 45C24.832 45 19 39.168 19 32C19 24.832 24.832 19 32 19C39.168 19 45 24.832 45 32C45 39.168 39.168 45 32 45ZM32 23C27.038 23 23 27.038 23 32C23 36.963 27.038 41 32 41C36.963 41 41 36.963 41 32C41 27.038 36.963 23 32 23Z" fill="url(#paint0_linear_721_108)"/>
<path d="M46 15C45.2044 15 44.4413 15.3161 43.8787 15.8787C43.3161 16.4413 43 17.2044 43 18C43 18.7956 43.3161 19.5587 43.8787 20.1213C44.4413 20.6839 45.2044 21 46 21C46.7956 21 47.5587 20.6839 48.1213 20.1213C48.6839 19.5587 49 18.7956 49 18C49 17.2044 48.6839 16.4413 48.1213 15.8787C47.5587 15.3161 46.7956 15 46 15Z" fill="url(#paint1_linear_721_108)"/>
<defs>
<linearGradient id="paint0_linear_721_108" x1="32" y1="18.167" x2="32" y2="45.679" gradientUnits="userSpaceOnUse">
<stop stop-color="#6DC7FF"/>
<stop offset="1" stop-color="#E6ABFF"/>
</linearGradient>
<linearGradient id="paint1_linear_721_108" x1="46" y1="12.75" x2="46" y2="23.049" gradientUnits="userSpaceOnUse">
<stop stop-color="#6DC7FF"/>
<stop offset="1" stop-color="#E6ABFF"/>
</linearGradient>
</defs>
</svg>
