<svg width="64" height="64" viewBox="0 0 64 64" fill="none" xmlns="http://www.w3.org/2000/svg">
<path d="M57.5951 16.086C57.3091 15.745 56.8331 15.636 56.4251 15.815C55.8111 16.086 55.1801 16.327 54.5341 16.534C55.3581 15.499 55.9961 14.318 56.4081 13.043C56.5351 12.647 56.4061 12.216 56.0821 11.956C55.7581 11.695 55.3081 11.661 54.9511 11.873C53.1741 12.914 51.2791 13.661 49.3101 14.096C47.2441 12.122 44.4491 11 41.5551 11C35.3861 11 30.3661 15.978 30.3661 22.097C30.3661 22.501 30.3881 22.907 30.4331 23.311C23.0231 22.606 16.1441 18.968 11.4061 13.208C11.1991 12.956 10.8881 12.823 10.5561 12.846C10.2311 12.871 9.93811 13.053 9.77211 13.334C8.77911 15.013 8.25311 16.947 8.25311 18.927C8.25311 21.374 9.06011 23.707 10.5001 25.607C10.2081 25.484 9.92111 25.347 9.64111 25.195C9.33011 25.028 8.95511 25.034 8.65311 25.216C8.35011 25.397 8.16511 25.723 8.16511 26.075V26.194C8.16511 29.902 10.0331 33.267 12.9511 35.298C12.9391 35.296 12.9271 35.293 12.9151 35.291C12.5651 35.226 12.2161 35.353 11.9851 35.618C11.7541 35.883 11.6791 36.249 11.7871 36.584C12.9691 40.232 15.9361 42.955 19.5561 43.916C16.5531 45.687 13.1551 46.613 9.59911 46.613C8.81311 46.613 8.03611 46.567 7.29111 46.476C6.82411 46.417 6.38511 46.694 6.22811 47.133C6.07111 47.573 6.24011 48.064 6.63511 48.314C11.4781 51.38 17.0641 53 22.7901 53C41.5621 53 52.7791 37.881 52.7791 23.264C52.7791 22.993 52.7741 22.723 52.7651 22.454C54.6721 21.031 56.3171 19.295 57.6611 17.285C57.9081 16.915 57.8811 16.427 57.5951 16.086ZM51.1671 21.143C50.8881 21.34 50.7291 21.666 50.7451 22.008C50.7651 22.423 50.7791 22.842 50.7791 23.264C50.7791 36.897 40.3101 51 22.7901 51C18.8081 51 14.8961 50.16 11.2911 48.548C15.5171 48.227 19.4891 46.698 22.8661 44.08C23.2011 43.82 23.3361 43.378 23.2021 42.976C23.0681 42.574 22.6961 42.299 22.2721 42.29C18.8911 42.225 15.8681 40.338 14.3241 37.455C15.4391 37.493 16.5271 37.356 17.6001 37.062C18.0471 36.939 18.3511 36.525 18.3351 36.062C18.3181 35.598 17.9851 35.208 17.5311 35.117C13.7581 34.365 10.8991 31.344 10.2871 27.668C11.4091 28.071 12.5841 28.299 13.7551 28.335C14.2141 28.346 14.6031 28.064 14.7381 27.639C14.8741 27.213 14.7111 26.749 14.3391 26.502C11.7811 24.804 10.2551 21.972 10.2551 18.927C10.2551 17.792 10.4651 16.677 10.8691 15.64C16.1881 21.467 23.6531 25.001 31.5831 25.4C31.9111 25.422 32.2001 25.284 32.4001 25.043C32.6021 24.802 32.6781 24.48 32.6071 24.175C32.4471 23.49 32.3671 22.791 32.3671 22.098C32.3671 17.082 36.4891 13.001 41.5561 13.001C44.0931 13.001 46.5351 14.048 48.2561 15.872C48.4911 16.12 48.8371 16.231 49.1731 16.168C50.5581 15.901 51.9121 15.497 53.2211 14.959C52.4921 15.966 51.5561 16.824 50.4621 17.473C50.0551 17.715 49.8731 18.208 50.0261 18.657C50.1791 19.104 50.6231 19.387 51.0941 19.326C52.0461 19.209 52.9801 19.034 53.8911 18.801C53.0601 19.666 52.1501 20.449 51.1671 21.143Z" fill="white"/>
<path d="M30.772 45.786L31.393 47.686C38.516 45.36 44.217 39.772 47.035 32.356L45.166 31.645C43.636 35.671 39.733 42.859 30.772 45.786Z" fill="#9DC1FF"/>
<path d="M42 22C43.1046 22 44 21.1046 44 20C44 18.8954 43.1046 18 42 18C40.8954 18 40 18.8954 40 20C40 21.1046 40.8954 22 42 22Z" fill="url(#paint0_linear_721_112)"/>
<defs>
<linearGradient id="paint0_linear_721_112" x1="42" y1="17.979" x2="42" y2="21.528" gradientUnits="userSpaceOnUse">
<stop stop-color="#6DC7FF"/>
<stop offset="1" stop-color="#E6ABFF"/>
</linearGradient>
</defs>
</svg>
