<svg width="48" height="48" viewBox="0 0 48 48" fill="none" xmlns="http://www.w3.org/2000/svg">
<path d="M23.062 40.999C22.712 40.999 22.348 40.914 22.034 40.662C21.29 40.064 21.464 39.086 21.53 38.718L21.779 37.251C21.875 36.531 21.793 36.3 21.783 36.275C21.79 36.313 21.55 36.166 20.998 36.049C12.302 34.921 5.93298 28.85 5.93298 21.626C5.93298 13.562 14.038 7 24 7C33.962 7 42.067 13.562 42.067 21.627C42.067 24.877 40.783 27.842 38.142 30.691C34.521 34.793 26.385 39.855 24.383 40.684C24.15 40.781 23.624 40.999 23.062 40.999Z" fill="url(#paint0_linear_716_165)"/>
<path d="M43 0H5C2.243 0 0 2.243 0 5V43C0 45.757 2.243 48 5 48H43C45.757 48 48 45.757 48 43V5C48 2.243 45.757 0 43 0ZM46 43C46 44.654 44.654 46 43 46H5C3.346 46 2 44.654 2 43V5C2 3.346 3.346 2 5 2H43C44.654 2 46 3.346 46 5V43Z" fill="url(#paint1_linear_716_165)"/>
<path d="M19.697 18H18.307C18.137 18 18 18.137 18 18.307V25.694C18 25.863 18.137 26 18.306 26H19.693C19.862 26 20 25.863 20 25.693V18.307C20 18.137 19.864 18 19.697 18Z" fill="white"/>
<path d="M15.694 24H13V18.306C13 18.137 12.863 18 12.694 18H11.307C11.137 18 11 18.137 11 18.307V25.69C11 25.773 11.033 25.848 11.085 25.904C11.086 25.905 11.088 25.907 11.089 25.909C11.09 25.91 11.092 25.912 11.093 25.913C11.148 25.966 11.222 25.999 11.304 25.999H15.692C15.861 25.999 15.999 25.862 15.999 25.692V24.306C16 24.137 15.863 24 15.694 24Z" fill="white"/>
<path d="M35.672 20C35.853 20 36 19.853 36 19.672V18.328C36 18.147 35.853 18 35.671 18H31.329H31.328C31.239 18 31.159 18.035 31.1 18.093C31.099 18.094 31.097 18.095 31.096 18.096C31.094 18.098 31.092 18.1 31.091 18.102C31.035 18.161 31 18.24 31 18.328V18.329V25.671C31 25.759 31.035 25.839 31.092 25.898C31.093 25.9 31.095 25.901 31.097 25.903C31.098 25.904 31.1 25.906 31.102 25.907C31.161 25.964 31.241 25.999 31.329 25.999H31.33H35.673C35.854 25.999 36.001 25.852 36.001 25.671V24.328C36 24.147 35.853 24 35.672 24H33V23H35.672C35.853 23 36 22.853 36 22.672V21.328C36 21.147 35.853 21 35.671 21H33V20H35.672Z" fill="white"/>
<path d="M28.672 18H27.329C27.147 18 27 18.147 27 18.328V22.691L23.732 18.146C23.724 18.134 23.716 18.123 23.707 18.113C23.706 18.112 23.705 18.111 23.705 18.111C23.699 18.104 23.692 18.097 23.686 18.091C23.684 18.089 23.682 18.087 23.68 18.085C23.675 18.08 23.669 18.075 23.663 18.07C23.66 18.068 23.658 18.065 23.655 18.063C23.65 18.059 23.644 18.055 23.638 18.051C23.635 18.049 23.632 18.047 23.628 18.045C23.622 18.042 23.617 18.038 23.611 18.035C23.608 18.033 23.604 18.032 23.601 18.03C23.595 18.027 23.589 18.024 23.583 18.022C23.579 18.021 23.576 18.019 23.573 18.018C23.567 18.016 23.561 18.013 23.554 18.012C23.55 18.011 23.547 18.01 23.543 18.009C23.537 18.007 23.531 18.006 23.525 18.005C23.521 18.004 23.516 18.004 23.512 18.003C23.507 18.002 23.501 18.001 23.495 18.001C23.49 18 23.484 18 23.478 18C23.474 18 23.471 17.999 23.467 17.999H22.329C22.147 18 22 18.147 22 18.328V25.671C22 25.852 22.147 25.999 22.328 25.999H23.672C23.853 25.999 24.001 25.852 24.001 25.67V21.31L27.273 25.861C27.295 25.894 27.323 25.921 27.354 25.942C27.355 25.943 27.356 25.944 27.357 25.945C27.363 25.949 27.37 25.953 27.377 25.957C27.38 25.959 27.383 25.96 27.386 25.962C27.391 25.965 27.396 25.967 27.401 25.97C27.406 25.972 27.411 25.975 27.417 25.977C27.42 25.978 27.423 25.98 27.427 25.981C27.435 25.984 27.441 25.986 27.449 25.988C27.451 25.988 27.452 25.989 27.454 25.989C27.48 25.996 27.507 26 27.536 26H28.674C28.855 26 29.002 25.853 29.002 25.672V18.329C29 18.147 28.853 18 28.672 18Z" fill="white"/>
<defs>
<linearGradient id="paint0_linear_716_165" x1="24" y1="7.108" x2="24" y2="40.58" gradientUnits="userSpaceOnUse">
<stop stop-color="#6DC7FF"/>
<stop offset="1" stop-color="#E6ABFF"/>
</linearGradient>
<linearGradient id="paint1_linear_716_165" x1="24" y1="-0.234" x2="24" y2="48.935" gradientUnits="userSpaceOnUse">
<stop stop-color="#1A6DFF"/>
<stop offset="1" stop-color="#C822FF"/>
</linearGradient>
</defs>
</svg>
