<svg width="64" height="64" viewBox="0 0 64 64" fill="none" xmlns="http://www.w3.org/2000/svg">
<path d="M32 58C17.664 58 6 46.337 6 32C6 17.664 17.664 6 32 6C46.336 6 58 17.664 58 32C58 46.337 46.336 58 32 58ZM32 8C18.767 8 8 18.767 8 32C8 45.233 18.767 56 32 56C45.233 56 56 45.233 56 32C56 18.767 45.233 8 32 8Z" fill="url(#paint0_linear_716_158)"/>
<path d="M25 26H19V44H25V26Z" fill="url(#paint1_linear_716_158)"/>
<path d="M22.5 24C24.433 24 26 22.6569 26 21C26 19.3431 24.433 18 22.5 18C20.567 18 19 19.3431 19 21C19 22.6569 20.567 24 22.5 24Z" fill="url(#paint2_linear_716_158)"/>
<path d="M40 26H39.471H39.47C37.283 26 35.47 27.572 35.083 29.647H35V26H29V44H35V35.412V33.883C35.007 33.504 35.037 33.154 35.084 32.823C35.392 31.493 36.577 30.5 38 30.5C39.657 30.5 41 31.843 41 33.5V34.059V35.235V44H47V34.882V34.059V33C47 29.134 43.866 26 40 26Z" fill="url(#paint3_linear_716_158)"/>
<defs>
<linearGradient id="paint0_linear_716_158" x1="32" y1="6" x2="32" y2="58" gradientUnits="userSpaceOnUse">
<stop stop-color="#1A6DFF"/>
<stop offset="1" stop-color="#C822FF"/>
</linearGradient>
<linearGradient id="paint1_linear_716_158" x1="21.922" y1="25.872" x2="22.081" y2="44.462" gradientUnits="userSpaceOnUse">
<stop stop-color="#6DC7FF"/>
<stop offset="1" stop-color="#E6ABFF"/>
</linearGradient>
<linearGradient id="paint2_linear_716_158" x1="22.474" y1="17.966" x2="22.527" y2="24.145" gradientUnits="userSpaceOnUse">
<stop stop-color="#6DC7FF"/>
<stop offset="1" stop-color="#E6ABFF"/>
</linearGradient>
<linearGradient id="paint3_linear_716_158" x1="38.077" y1="25.983" x2="37.922" y2="44.076" gradientUnits="userSpaceOnUse">
<stop stop-color="#6DC7FF"/>
<stop offset="1" stop-color="#E6ABFF"/>
</linearGradient>
</defs>
</svg>
