<svg width="64" height="64" viewBox="0 0 64 64" fill="none" xmlns="http://www.w3.org/2000/svg">
<path d="M57.595 16.086C57.309 15.745 56.833 15.636 56.425 15.815C55.811 16.086 55.18 16.327 54.534 16.534C55.358 15.499 55.996 14.318 56.408 13.043C56.535 12.647 56.406 12.216 56.082 11.956C55.758 11.695 55.308 11.661 54.951 11.873C53.174 12.914 51.279 13.661 49.31 14.096C47.244 12.122 44.449 11 41.555 11C35.386 11 30.366 15.978 30.366 22.097C30.366 22.501 30.388 22.907 30.433 23.311C23.023 22.606 16.144 18.968 11.406 13.208C11.199 12.956 10.888 12.823 10.556 12.846C10.231 12.871 9.93799 13.053 9.77199 13.334C8.77899 15.013 8.25299 16.947 8.25299 18.927C8.25299 21.374 9.05999 23.707 10.5 25.607C10.208 25.484 9.92099 25.347 9.64099 25.195C9.32999 25.028 8.95499 25.034 8.65299 25.216C8.34999 25.397 8.16499 25.723 8.16499 26.075V26.194C8.16499 29.902 10.033 33.267 12.951 35.298C12.939 35.296 12.927 35.293 12.915 35.291C12.565 35.226 12.216 35.353 11.985 35.618C11.754 35.883 11.679 36.249 11.787 36.584C12.969 40.232 15.936 42.955 19.556 43.916C16.553 45.687 13.155 46.613 9.59899 46.613C8.81299 46.613 8.03599 46.567 7.29099 46.476C6.82399 46.417 6.38499 46.694 6.22799 47.133C6.07099 47.573 6.23999 48.064 6.63499 48.314C11.478 51.38 17.064 53 22.79 53C41.562 53 52.779 37.881 52.779 23.264C52.779 22.993 52.774 22.723 52.765 22.454C54.672 21.031 56.317 19.295 57.661 17.285C57.908 16.915 57.881 16.427 57.595 16.086ZM51.167 21.143C50.888 21.34 50.729 21.666 50.745 22.008C50.765 22.423 50.779 22.842 50.779 23.264C50.779 36.897 40.31 51 22.79 51C18.808 51 14.896 50.16 11.291 48.548C15.517 48.227 19.489 46.698 22.866 44.08C23.201 43.82 23.336 43.378 23.202 42.976C23.068 42.574 22.696 42.299 22.272 42.29C18.891 42.225 15.868 40.338 14.324 37.455C15.439 37.493 16.527 37.356 17.6 37.062C18.047 36.939 18.351 36.525 18.335 36.062C18.318 35.598 17.985 35.208 17.531 35.117C13.758 34.365 10.899 31.344 10.287 27.668C11.409 28.071 12.584 28.299 13.755 28.335C14.214 28.346 14.603 28.064 14.738 27.639C14.874 27.213 14.711 26.749 14.339 26.502C11.781 24.804 10.255 21.972 10.255 18.927C10.255 17.792 10.465 16.677 10.869 15.64C16.188 21.467 23.653 25.001 31.583 25.4C31.911 25.422 32.2 25.284 32.4 25.043C32.602 24.802 32.678 24.48 32.607 24.175C32.447 23.49 32.367 22.791 32.367 22.098C32.367 17.082 36.489 13.001 41.556 13.001C44.093 13.001 46.535 14.048 48.256 15.872C48.491 16.12 48.837 16.231 49.173 16.168C50.558 15.901 51.912 15.497 53.221 14.959C52.492 15.966 51.556 16.824 50.462 17.473C50.055 17.715 49.873 18.208 50.026 18.657C50.179 19.104 50.623 19.387 51.094 19.326C52.046 19.209 52.98 19.034 53.891 18.801C53.06 19.666 52.15 20.449 51.167 21.143Z" fill="url(#paint0_linear_716_149)"/>
<path d="M30.772 45.786L31.393 47.686C38.516 45.36 44.217 39.772 47.035 32.356L45.166 31.645C43.636 35.671 39.733 42.859 30.772 45.786Z" fill="url(#paint1_linear_716_149)"/>
<path d="M42 22C43.1046 22 44 21.1046 44 20C44 18.8954 43.1046 18 42 18C40.8954 18 40 18.8954 40 20C40 21.1046 40.8954 22 42 22Z" fill="url(#paint2_linear_716_149)"/>
<defs>
<linearGradient id="paint0_linear_716_149" x1="32" y1="9.936" x2="32" y2="52.195" gradientUnits="userSpaceOnUse">
<stop stop-color="#1A6DFF"/>
<stop offset="1" stop-color="#C822FF"/>
</linearGradient>
<linearGradient id="paint1_linear_716_149" x1="38.903" y1="9.93602" x2="38.903" y2="52.195" gradientUnits="userSpaceOnUse">
<stop stop-color="#1A6DFF"/>
<stop offset="1" stop-color="#C822FF"/>
</linearGradient>
<linearGradient id="paint2_linear_716_149" x1="42" y1="17.979" x2="42" y2="21.528" gradientUnits="userSpaceOnUse">
<stop stop-color="#6DC7FF"/>
<stop offset="1" stop-color="#E6ABFF"/>
</linearGradient>
</defs>
</svg>
