<svg width="64" height="64" viewBox="0 0 64 64" fill="none" xmlns="http://www.w3.org/2000/svg">
<path d="M32 53.001C25.642 53.001 19.284 52.806 12.701 52.417C7.74101 52.124 3.74001 48.175 3.39301 43.23C2.87201 35.778 2.87201 28.221 3.39201 20.77C3.74001 15.825 7.74101 11.875 12.701 11.582C25.868 10.804 38.134 10.804 51.299 11.582C56.259 11.875 60.26 15.824 60.607 20.769C61.128 28.221 61.128 35.778 60.608 43.229C60.26 48.174 56.259 52.124 51.299 52.417C44.716 52.806 38.358 53.001 32 53.001ZM51.182 50.421L51.241 51.419L51.182 50.421C55.141 50.187 58.335 47.035 58.613 43.09C59.128 35.732 59.128 28.269 58.612 20.909C58.336 16.965 55.141 13.813 51.182 13.579C38.094 12.806 25.907 12.806 12.819 13.579C8.86001 13.813 5.66601 16.965 5.38801 20.91C4.87301 28.268 4.87301 35.731 5.38901 43.091C5.66501 47.035 8.86001 50.187 12.819 50.421C25.906 51.194 38.094 51.194 51.182 50.421Z" fill="url(#paint0_linear_716_154)"/>
<path d="M25 39.8399V24.1599L38.44 31.9999L25 39.8399Z" fill="url(#paint1_linear_716_154)"/>
<path d="M24 41.5809V22.4189L40.425 31.9999L24 41.5809ZM26 25.9009V38.0979L36.456 31.9999L26 25.9009Z" fill="url(#paint2_linear_716_154)"/>
<defs>
<linearGradient id="paint0_linear_716_154" x1="32" y1="10" x2="32" y2="54.751" gradientUnits="userSpaceOnUse">
<stop stop-color="#1A6DFF"/>
<stop offset="1" stop-color="#C822FF"/>
</linearGradient>
<linearGradient id="paint1_linear_716_154" x1="31.72" y1="24.2499" x2="31.72" y2="39.2519" gradientUnits="userSpaceOnUse">
<stop stop-color="#6DC7FF"/>
<stop offset="1" stop-color="#E6ABFF"/>
</linearGradient>
<linearGradient id="paint2_linear_716_154" x1="32.212" y1="9.99994" x2="32.212" y2="54.7509" gradientUnits="userSpaceOnUse">
<stop stop-color="#1A6DFF"/>
<stop offset="1" stop-color="#C822FF"/>
</linearGradient>
</defs>
</svg>
